<svg xmlns="http://www.w3.org/2000/svg" xmlns:xlink="http://www.w3.org/1999/xlink" viewBox="0 0 1366 4976.67"><defs><style>.cls-1{fill:#fff;}.cls-2,.cls-3,.cls-4{fill:none;stroke:#000;stroke-miterlimit:10;}.cls-2{stroke-width:2px;}.cls-3{stroke-width:3px;}.cls-4{stroke-width:0.63px;}.cls-5{fill:url(#linear-gradient);}.cls-6{fill:url(#linear-gradient-2);}</style><linearGradient id="linear-gradient" x1="132" y1="-1661.42" x2="683.01" y2="-1661.42" gradientTransform="matrix(1, 0, 0, -1, 0, 826.91)" gradientUnits="userSpaceOnUse"><stop offset="0" stop-color="#fff" stop-opacity="0"/><stop offset="0.86" stop-color="#878787" stop-opacity="0.19"/><stop offset="1" stop-opacity="0.4"/></linearGradient><linearGradient id="linear-gradient-2" x1="-380" y1="2486.81" x2="171.01" y2="2486.81" gradientTransform="matrix(-1, 0, 0, 1, 854, 1.52)" xlink:href="#linear-gradient"/></defs><g id="Layer_1" data-name="Layer 1"><polygon class="cls-1" points="133 4970.35 0 4970.35 0 6.32 23.97 6.32 133 6.32 133 4970.35"/><rect y="6.32" width="16.31" height="4964.02"/><line class="cls-2" x1="26" y1="4970.35" x2="26" y2="6.32"/><line class="cls-2" x1="36" y1="4970.35" x2="36" y2="6.32"/><line class="cls-2" x1="48" y1="4970.35" x2="48" y2="6.32"/><line class="cls-2" x1="60" y1="4970.35" x2="60" y2="6.32"/><line class="cls-2" x1="73" y1="4970.35" x2="73" y2="6.32"/><line class="cls-2" x1="88" y1="4970.35" x2="88" y2="6.32"/><line class="cls-2" x1="104" y1="4970.35" x2="104" y2="6.32"/><line class="cls-2" x1="120" y1="4970.35" x2="120" y2="6.32"/><line class="cls-3" x1="133" y1="4970.35" x2="133" y2="6.32"/><polygon class="cls-1" points="1233 6.32 1366 6.32 1366 4970.35 1342.03 4970.35 1233 4970.35 1233 6.32"/><rect x="1349.69" y="6.32" width="16.31" height="4964.02"/><line class="cls-2" x1="1340" y1="6.32" x2="1340" y2="4970.35"/><line class="cls-2" x1="1330" y1="6.32" x2="1330" y2="4970.35"/><line class="cls-2" x1="1318" y1="6.32" x2="1318" y2="4970.35"/><line class="cls-2" x1="1306" y1="6.32" x2="1306" y2="4970.35"/><line class="cls-2" x1="1293" y1="6.32" x2="1293" y2="4970.35"/><line class="cls-2" x1="1278" y1="6.32" x2="1278" y2="4970.35"/><line class="cls-2" x1="1262" y1="6.32" x2="1262" y2="4970.35"/><line class="cls-2" x1="1246" y1="6.32" x2="1246" y2="4970.35"/><line class="cls-3" x1="1233" y1="6.32" x2="1233" y2="4970.35"/><line class="cls-4" x1="682.99" x2="682.99" y2="4976.67"/></g><g id="Layer_2" data-name="Layer 2"><rect class="cls-5" x="132" width="551.01" height="4976.67"/><rect class="cls-6" x="682.99" width="551.01" height="4976.67"/></g></svg>