<svg id="Layer_1" data-name="Layer 1" xmlns="http://www.w3.org/2000/svg" xmlns:xlink="http://www.w3.org/1999/xlink" viewBox="0 0 1366 787"><defs><style>.cls-1{fill:#fff;}.cls-2,.cls-5{fill:none;stroke:#000;stroke-miterlimit:10;}.cls-2{stroke-width:2.03px;}.cls-3{fill:url(#linear-gradient);}.cls-4{fill:url(#linear-gradient-2);}.cls-5{stroke-width:0.25px;}</style><linearGradient id="linear-gradient" x1="132" y1="393.5" x2="683.01" y2="393.5" gradientUnits="userSpaceOnUse"><stop offset="0" stop-color="#fff" stop-opacity="0"/><stop offset="0.86" stop-color="#878787" stop-opacity="0.19"/><stop offset="1" stop-opacity="0.4"/></linearGradient><linearGradient id="linear-gradient-2" x1="-380" y1="337.11" x2="171.01" y2="337.11" gradientTransform="translate(1062.99 47.39)" xlink:href="#linear-gradient"/></defs><polygon class="cls-1" points="133 786 0 786 0 1 23.97 1 133 1 133 786"/><rect y="1" width="16.31" height="785"/><line class="cls-2" x1="26" y1="786" x2="26" y2="1"/><line class="cls-2" x1="36" y1="786" x2="36" y2="1"/><line class="cls-2" x1="48" y1="786" x2="48" y2="1"/><line class="cls-2" x1="60" y1="786" x2="60" y2="1"/><line class="cls-2" x1="73" y1="786" x2="73" y2="1"/><line class="cls-2" x1="88" y1="786" x2="88" y2="1"/><line class="cls-2" x1="104" y1="786" x2="104" y2="1"/><line class="cls-2" x1="120" y1="786" x2="120" y2="1"/><line class="cls-2" x1="133" y1="786" x2="133" y2="1"/><polygon class="cls-1" points="1233 1 1366 1 1366 786 1342.03 786 1233 786 1233 1"/><rect x="1349.69" y="-8" width="16.31" height="785" transform="translate(2715.69 778) rotate(180)"/><line class="cls-2" x1="1340" y1="1" x2="1340" y2="786"/><line class="cls-2" x1="1330" y1="1" x2="1330" y2="786"/><line class="cls-2" x1="1318" y1="1" x2="1318" y2="786"/><line class="cls-2" x1="1306" y1="1" x2="1306" y2="786"/><line class="cls-2" x1="1293" y1="1" x2="1293" y2="786"/><line class="cls-2" x1="1278" y1="1" x2="1278" y2="786"/><line class="cls-2" x1="1262" y1="1" x2="1262" y2="786"/><line class="cls-2" x1="1246" y1="1" x2="1246" y2="786"/><line class="cls-2" x1="1233" y1="1" x2="1233" y2="786"/><rect class="cls-3" x="132" width="551.01" height="787"/><rect class="cls-4" x="682.99" y="-9" width="551.01" height="787" transform="translate(1916.99 778) rotate(180)"/><line class="cls-5" x1="682.99" x2="682.99" y2="787"/></svg>